<?xml version="1.0" encoding="iso-8859-1"?>
<!-- Generator: Adobe Illustrator 19.0.0, SVG Export Plug-In . SVG Version: 6.00 Build 0)  -->
<svg version="1.1" id="Layer_1" xmlns="http://www.w3.org/2000/svg" xmlns:xlink="http://www.w3.org/1999/xlink" x="0px" y="0px"
	 viewBox="0 0 503.574 503.574" style="enable-background:new 0 0 503.574 503.574;" xml:space="preserve">
<g>
	<g>
		<path d="M258.059,204.31c-26.068,0-47.276,21.208-47.276,47.276s21.208,47.276,47.276,47.276s47.276-21.204,47.272-47.276
			C305.331,225.518,284.127,204.31,258.059,204.31z M258.059,290.862c-21.656,0-39.276-17.62-39.276-39.276
			s17.616-39.276,39.276-39.276c21.656,0,39.276,17.616,39.272,39.276C297.331,273.242,279.715,290.862,258.059,290.862z"/>
	</g>
</g>
<g>
	<g>
		<path d="M47.739,156.95c-14.18,0-25.72,11.536-25.72,25.716c0,14.184,11.54,25.72,25.72,25.72c14.18,0,25.72-11.536,25.716-25.72
			C73.455,168.486,61.919,156.95,47.739,156.95z M47.739,200.39c-9.772,0-17.72-7.952-17.72-17.72s7.948-17.716,17.72-17.716
			c9.772,0,17.72,7.948,17.716,17.716C65.455,192.442,57.507,200.39,47.739,200.39z"/>
	</g>
</g>
<g>
	<g>
		<path d="M291.811,452.138c-14.184,0-25.72,11.536-25.72,25.716s11.54,25.72,25.72,25.72c14.184,0,25.724-11.54,25.724-25.72
			S305.995,452.138,291.811,452.138z M291.811,495.578c-9.772,0-17.72-7.948-17.72-17.72c0-9.772,7.952-17.716,17.72-17.716
			c9.772,0,17.724,7.944,17.724,17.716C309.535,487.63,301.583,495.578,291.811,495.578z"/>
	</g>
</g>
<g>
	<g>
		<path d="M399.815,78.414c-14.18,0-25.716,11.536-25.716,25.716c0,14.184,11.536,25.724,25.716,25.724
			c14.184,0,25.724-11.536,25.724-25.724C425.539,89.95,413.999,78.414,399.815,78.414z M399.815,121.858
			c-9.768,0-17.716-7.952-17.716-17.724c0-9.768,7.948-17.716,17.716-17.716c9.772,0,17.724,7.948,17.724,17.716
			C417.539,113.906,409.587,121.858,399.815,121.858z"/>
	</g>
</g>
<g>
	<g>
		<g>
			<path d="M177.195,140.974c0.24,0.08,0.48,0.08,0.76,0.08c1.88,0,3.56-1.32,3.92-3.24c0.4-2.2-1-4.28-3.2-4.68
				c-2.16-0.4-4.24,1-4.68,3.16C173.595,138.494,175.035,140.574,177.195,140.974z"/>
			<path d="M172.435,172.614c0.16,0.04,0.32,0.04,0.52,0.04c1.96,0,3.68-1.48,3.92-3.48c0.32-2.2-1.24-4.2-3.44-4.48
				c-2.2-0.28-4.2,1.24-4.48,3.44C168.675,170.334,170.235,172.334,172.435,172.614z"/>
			<path d="M175.075,184.934c0,0,0,0.001,0,0.001c-0.001,0.013,0.001,0.026,0,0.039V184.934z"/>
			<path d="M174.555,156.774c0.24,0.04,0.44,0.04,0.64,0.04c1.96,0,3.64-1.4,3.96-3.36c0.36-2.2-1.16-4.24-3.32-4.6
				c-2.2-0.32-4.24,1.16-4.6,3.32C170.915,154.374,172.395,156.414,174.555,156.774z"/>
			<path d="M193.155,79.094c0.44,0.16,0.92,0.24,1.36,0.24c1.64,0,3.16-1,3.76-2.64c0.76-2.04-0.28-4.36-2.36-5.12
				c-2.08-0.76-4.36,0.32-5.16,2.36C189.995,76.014,191.075,78.334,193.155,79.094z"/>
			<path d="M188.195,94.294c0.4,0.12,0.8,0.2,1.2,0.2c1.72,0,3.28-1.12,3.84-2.84c0.64-2.08-0.52-4.32-2.64-5
				c-2.12-0.64-4.36,0.52-5,2.64C184.915,91.414,186.115,93.654,188.195,94.294z"/>
			<path d="M170.835,316.29c2.2-0.2,3.84-2.12,3.64-4.32v-0.04c-0.2-2.196-2.16-3.8-4.36-3.6c-2.2,0.204-3.8,2.16-3.6,4.364
				c0.16,2.08,1.92,3.636,3.96,3.636C170.595,316.33,170.715,316.33,170.835,316.29z"/>
			<path d="M183.955,109.734c0.36,0.08,0.68,0.12,1.04,0.12c1.76,0,3.4-1.2,3.84-2.96c0.56-2.16-0.68-4.36-2.84-4.92
				c-2.12-0.56-4.32,0.72-4.88,2.84C180.555,106.974,181.835,109.174,183.955,109.734z"/>
			<path d="M169.355,204.454c0.12,0.04,0.24,0.04,0.32,0.04c2.08,0,3.84-1.6,4-3.72c0.16-2.2-1.48-4.12-3.68-4.28
				c-2.2-0.16-4.12,1.48-4.32,3.68C165.515,202.374,167.155,204.294,169.355,204.454z"/>
			<path d="M167.875,268.41c0.04,0,0.04,0,0.08,0c2.2-0.04,3.96-1.88,3.92-4.084c-0.04-2.196-1.88-3.956-4.08-3.916
				c-2.2,0.04-3.96,1.88-3.92,4.08C163.915,266.654,165.715,268.414,167.875,268.41z"/>
			<path d="M167.755,252.414c2.2,0,4-1.76,4-3.96c0-2.24-1.76-4.04-3.96-4.04c-2.24,0-4.04,1.8-4.04,4
				C163.755,250.614,165.555,252.414,167.755,252.414z"/>
			<path d="M168.355,284.414c0.04,0,0.12,0,0.16-0.04c2.2-0.08,3.92-1.92,3.84-4.16c-0.08-2.204-1.96-3.92-4.16-3.8
				c-2.2,0.076-3.92,1.916-3.84,4.16C164.475,282.694,166.235,284.414,168.355,284.414z"/>
			<path d="M169.515,300.378c2.2-0.16,3.84-2.08,3.72-4.28c-0.16-2.2-2.08-3.88-4.28-3.72c-2.2,0.16-3.88,2.036-3.72,4.276
				c0.16,2.08,1.88,3.72,4,3.724C169.315,300.378,169.395,300.378,169.515,300.378z"/>
			<path d="M170.675,188.534c0.16,0,0.28,0,0.44,0c2,0,3.759-1.519,3.96-3.599c0.178-2.224-1.373-4.162-3.56-4.361
				c-2.2-0.24-4.2,1.36-4.4,3.56C166.875,186.334,168.475,188.294,170.675,188.534z"/>
			<path d="M167.915,236.414c0.04,0,0.08,0,0.12,0c2.16,0,3.92-1.72,4-3.88c0.04-2.2-1.68-4.04-3.88-4.12
				c-2.24-0.04-4.08,1.68-4.12,3.92C163.955,234.534,165.715,236.374,167.915,236.414z"/>
			<path d="M198.875,64.174c0.52,0.2,1.08,0.32,1.6,0.32c1.56,0,3-0.88,3.68-2.4c0.88-2-0.04-4.36-2.04-5.28
				c-2.04-0.88-4.4,0.04-5.28,2.08C195.955,60.894,196.875,63.254,198.875,64.174z"/>
			<path d="M168.435,220.454c0.08,0,0.16,0,0.24,0c2.12,0,3.88-1.68,3.96-3.8c0.12-2.2-1.56-4.08-3.76-4.2
				c-2.24-0.12-4.12,1.56-4.2,3.8C164.555,218.454,166.235,220.334,168.435,220.454z"/>
			<path d="M180.315,125.294c0.28,0.08,0.6,0.08,0.88,0.08c1.84,0,3.48-1.24,3.88-3.12c0.48-2.12-0.84-4.28-3-4.76
				c-2.16-0.48-4.32,0.88-4.8,3.04C176.795,122.654,178.155,124.814,180.315,125.294z"/>
			<path d="M343.355,169.774c-2.2,0.28-3.76,2.28-3.48,4.44c0.24,2.04,1.96,3.52,3.96,3.52c0.16,0,0.32,0,0.48,0
				c2.2-0.28,3.76-2.28,3.48-4.48c0,0.04,0,0.04,0,0.04C347.555,171.094,345.555,169.534,343.355,169.774z"/>
			<path d="M345.155,185.694c-2.2,0.2-3.8,2.12-3.6,4.32c0.2,2.08,1.92,3.64,3.96,3.64c0.12,0,0.28,0,0.4,0
				c2.2-0.24,3.8-2.16,3.6-4.36S347.355,185.454,345.155,185.694z"/>
			<path d="M341.115,153.934c-2.2,0.32-3.68,2.36-3.36,4.56c0.28,1.96,2,3.4,3.92,3.4c0.2,0,0.4,0,0.6-0.04
				c2.2-0.32,3.72-2.36,3.36-4.56C345.315,155.134,343.275,153.614,341.115,153.934z"/>
			<path d="M346.555,201.614c-2.2,0.16-3.88,2.04-3.72,4.28c0.12,2.08,1.88,3.72,3.96,3.72c0.12,0,0.2,0,0.28,0
				c2.2-0.16,3.88-2.08,3.72-4.28C350.675,203.134,348.755,201.454,346.555,201.614z"/>
			<path d="M348.155,233.574c-2.24,0.04-3.96,1.84-3.92,4.08c0.04,2.16,1.8,3.92,4,3.92c0,0,0.04,0,0.08,0
				c2.2-0.04,3.96-1.88,3.92-4.08C352.195,235.254,350.355,233.534,348.155,233.574z"/>
			<path d="M348.355,249.574c-2.2-0.04-4,1.76-4,3.96c0,2.2,1.8,4,4,4s4-1.76,4-3.96S350.595,249.574,348.355,249.574z"/>
			<path d="M338.395,138.174c-2.16,0.4-3.6,2.48-3.2,4.64c0.32,1.92,2,3.32,3.92,3.32c0.24,0,0.48-0.04,0.72-0.08
				c2.16-0.4,3.6-2.48,3.2-4.64C342.675,139.214,340.595,137.774,338.395,138.174z"/>
			<path d="M347.555,217.574c-2.24,0.12-3.92,1.96-3.84,4.16c0.08,2.16,1.88,3.84,4,3.84c0.08,0,0.12,0,0.16,0
				c2.24-0.12,3.92-1.96,3.84-4.16C351.595,219.174,349.755,217.494,347.555,217.574z"/>
			<path d="M335.195,122.494c-2.16,0.48-3.52,2.6-3.08,4.76c0.4,1.88,2.08,3.16,3.92,3.16c0.28,0,0.56-0.04,0.84-0.08
				c2.16-0.48,3.52-2.6,3.08-4.76C339.475,123.414,337.355,122.054,335.195,122.494z"/>
			<path d="M307.435,52.454c0.72,1.4,2.12,2.2,3.56,2.2c0.64,0,1.24-0.12,1.8-0.4c2-1,2.8-3.4,1.8-5.4c-1-1.96-3.4-2.76-5.4-1.76
				C307.235,48.094,306.435,50.494,307.435,52.454z"/>
			<path d="M213.475,35.734c0.72,0.48,1.48,0.68,2.28,0.68c1.28,0,2.52-0.6,3.28-1.72c1.28-1.84,0.8-4.32-1.04-5.56
				c-1.8-1.24-4.32-0.8-5.56,1.04C211.195,31.974,211.675,34.494,213.475,35.734z"/>
			<path d="M313.955,66.734c0.64,1.56,2.12,2.48,3.68,2.48c0.52,0,1.04-0.08,1.52-0.32c2.04-0.84,3.04-3.16,2.2-5.2
				c-0.88-2.04-3.2-3.04-5.24-2.16C314.075,62.374,313.115,64.694,313.955,66.734z"/>
			<path d="M328.555,111.814c0.44,1.8,2.08,3.04,3.88,3.04c0.32,0,0.64-0.04,0.96-0.12c2.16-0.56,3.44-2.72,2.92-4.88
				c-0.56-2.16-2.72-3.44-4.88-2.92C329.315,107.494,327.995,109.654,328.555,111.814z"/>
			<path d="M205.595,49.614c0.6,0.32,1.24,0.48,1.88,0.48c1.44,0,2.8-0.76,3.52-2.08c1.04-1.96,0.32-4.4-1.64-5.44
				c-1.92-1.04-4.36-0.32-5.4,1.64C202.915,46.174,203.635,48.574,205.595,49.614z"/>
			<path d="M319.555,81.494c0.56,1.64,2.12,2.68,3.76,2.68c0.44,0,0.88-0.08,1.32-0.24c2.08-0.72,3.2-3,2.48-5.08
				c-0.76-2.08-3.04-3.2-5.12-2.48C319.915,77.134,318.835,79.414,319.555,81.494z"/>
			<path d="M324.395,96.534c0.48,1.72,2.08,2.88,3.8,2.88c0.4,0,0.76-0.08,1.16-0.16c2.12-0.64,3.32-2.88,2.68-5
				c-0.6-2.12-2.84-3.32-4.96-2.68C324.955,92.174,323.755,94.414,324.395,96.534z"/>
			<path d="M332.475,392.254c-2.16-0.556-4.32,0.72-4.92,2.88c-0.56,2.12,0.72,4.32,2.88,4.84c0.36,0.12,0.68,0.16,1.04,0.16
				c1.76,0,3.36-1.2,3.84-3C335.875,394.974,334.595,392.814,332.475,392.254z"/>
			<path d="M328.235,407.694c-2.08-0.684-4.32,0.52-4.96,2.636h-0.04c-0.64,2.12,0.56,4.364,2.68,5c0.36,0.124,0.76,0.16,1.16,0.16
				c1.72,0,3.28-1.076,3.84-2.796C331.555,410.574,330.355,408.33,328.235,407.694z"/>
			<path d="M306.595,34.574c-1.2-1.84-3.68-2.4-5.52-1.24c-1.88,1.2-2.44,3.64-1.28,5.52c0.76,1.2,2.08,1.88,3.4,1.88
				c0.72,0,1.48-0.2,2.12-0.64C307.195,38.934,307.755,36.454,306.595,34.574z"/>
			<path d="M311.075,452.41c-1.96-1.04-4.36-0.28-5.4,1.68c-1.04,1.964-0.28,4.36,1.68,5.4c0.6,0.324,1.24,0.484,1.88,0.48
				c1.4,0,2.8-0.8,3.52-2.16C313.795,455.89,313.035,453.45,311.075,452.41z"/>
			<path d="M323.355,422.934c-2.08-0.76-4.36,0.28-5.12,2.36c-0.76,2.08,0.32,4.4,2.4,5.12c0.44,0.2,0.92,0.24,1.36,0.236
				c1.64,0,3.2-1,3.76-2.596C326.515,425.974,325.435,423.654,323.355,422.934z"/>
			<path d="M317.715,437.85c-2.04-0.876-4.4,0.084-5.28,2.084c-0.88,2.036,0.04,4.396,2.08,5.28c0.52,0.2,1.08,0.32,1.6,0.32
				c1.56,0,3-0.884,3.68-2.404C320.675,441.094,319.715,438.734,317.715,437.85z"/>
			<path d="M275.195,490.534c-1.88,1.116-2.52,3.56-1.4,5.476c0.76,1.244,2.08,1.964,3.44,1.964c0.72,0,1.4-0.2,2.04-0.56
				c1.92-1.16,2.52-3.6,1.4-5.48C279.555,490.01,277.115,489.414,275.195,490.534z"/>
			<path d="M291.235,20.734c-1.68,1.4-1.88,3.92-0.48,5.64c0.8,0.92,1.92,1.4,3.08,1.4c0.92,0,1.8-0.28,2.56-0.92
				c1.68-1.44,1.92-3.96,0.48-5.64C295.475,19.534,292.915,19.294,291.235,20.734z"/>
			<path d="M284.835,9.494c-1.76-1.32-4.28-1-5.64,0.76c-1.32,1.76-1,4.24,0.76,5.6c0.72,0.56,1.56,0.84,2.44,0.84
				c1.2,0,2.36-0.56,3.16-1.6C286.915,13.374,286.555,10.854,284.835,9.494z"/>
			<path d="M339.155,360.97c-2.2-0.396-4.28,1.04-4.68,3.2c-0.4,2.16,1,4.28,3.2,4.68c0.24,0.044,0.48,0.044,0.72,0.044
				c1.88,0,3.56-1.324,3.92-3.244C342.755,363.49,341.315,361.374,339.155,360.97z"/>
			<path d="M345.555,313.45c-2.2-0.236-4.16,1.36-4.4,3.56c-0.2,2.204,1.4,4.16,3.6,4.404c0.12,0,0.28,0,0.4-0.004
				c2.04,0,3.76-1.516,3.96-3.6C349.355,315.61,347.755,313.65,345.555,313.45z"/>
			<path d="M336.075,376.65c-2.16-0.48-4.28,0.884-4.8,3.044c-0.48,2.156,0.88,4.316,3.04,4.796c0.32,0.044,0.6,0.084,0.88,0.08
				c1.84,0,3.48-1.28,3.92-3.12C339.595,379.29,338.235,377.17,336.075,376.65z"/>
			<path d="M346.835,297.49c-2.2-0.16-4.12,1.48-4.28,3.68c-0.16,2.204,1.48,4.16,3.68,4.32c0.08,0,0.2,0,0.28,0
				c2.08,0,3.84-1.6,4-3.72C350.675,299.574,349.035,297.65,346.835,297.49z"/>
			<path d="M348.235,265.534c-2.2-0.044-4.04,1.676-4.08,3.916c-0.08,2.2,1.68,4.04,3.88,4.084c0.04,0,0.08,0,0.12,0
				c2.12,0,3.92-1.724,3.96-3.884C352.195,267.45,350.435,265.614,348.235,265.534z"/>
			<path d="M347.715,281.534c-2.2-0.12-4.08,1.596-4.2,3.796c-0.08,2.204,1.6,4.084,3.8,4.204c0.08,0,0.16,0,0.2,0
				c2.12,0,3.92-1.684,4-3.8C351.635,283.534,349.915,281.65,347.715,281.534z"/>
			<path d="M269.595,1.374c-2.12-0.68-4.36,0.52-5,2.6c-0.68,2.12,0.52,4.36,2.6,5.04c0.4,0.12,0.8,0.16,1.2,0.16
				c1.72,0,3.28-1.08,3.84-2.8C272.875,4.254,271.715,2.014,269.595,1.374z"/>
			<path d="M343.835,329.334c-2.16-0.276-4.2,1.28-4.44,3.48h-0.04c-0.24,2.2,1.28,4.2,3.48,4.48c0.16,0,0.32,0.036,0.52,0.04
				c1.96,0,3.72-1.48,3.96-3.52C347.595,331.614,346.035,329.614,343.835,329.334z"/>
			<path d="M341.715,345.17c-2.16-0.32-4.24,1.16-4.56,3.364c-0.36,2.16,1.16,4.24,3.32,4.56c0.2,0.04,0.44,0.04,0.64,0.036
				c1.92,0,3.64-1.4,3.96-3.36C345.395,347.574,343.915,345.534,341.715,345.17z"/>
			<path d="M235.835,6.374c-1.88,1.16-2.44,3.64-1.28,5.48c0.76,1.24,2.04,1.88,3.4,1.88c0.72,0,1.44-0.16,2.12-0.6
				c1.84-1.16,2.44-3.64,1.24-5.48C240.155,5.734,237.675,5.174,235.835,6.374z"/>
			<path d="M187.275,390.214c-0.52-2.12-2.68-3.44-4.8-2.92c-2.16,0.52-3.48,2.68-2.96,4.84c0.48,1.84,2.08,3.036,3.88,3.036
				c0.32,0,0.64-0.036,1-0.116C186.515,394.534,187.835,392.33,187.275,390.214z"/>
			<path d="M191.395,405.494h0.04c-0.64-2.12-2.84-3.32-4.96-2.72c-2.12,0.64-3.36,2.84-2.72,4.96c0.48,1.756,2.08,2.88,3.84,2.88
				c0.36,0,0.72-0.04,1.12-0.16C190.795,409.814,192.035,407.614,191.395,405.494z"/>
			<path d="M196.195,420.57c-0.72-2.08-3-3.2-5.08-2.48c-2.08,0.72-3.2,3-2.48,5.08c0.56,1.644,2.12,2.68,3.8,2.68
				c0.4,0,0.84-0.04,1.28-0.2C195.795,424.93,196.915,422.65,196.195,420.57z"/>
			<path d="M208.155,449.65c-0.96-1.956-3.36-2.8-5.36-1.8c-1.96,0.96-2.76,3.364-1.8,5.364c0.72,1.4,2.12,2.2,3.6,2.2
				c0.6,0,1.2-0.124,1.76-0.404C208.355,454.054,209.155,451.65,208.155,449.65z"/>
			<path d="M201.755,435.33c-0.84-2.04-3.2-3.04-5.24-2.2c-2.04,0.84-3.04,3.16-2.2,5.2c0,0.044,0,0.044,0,0.044
				c0.64,1.52,2.16,2.476,3.72,2.476c0.52,0,1-0.116,1.52-0.316C201.595,439.694,202.555,437.374,201.755,435.33z"/>
			<path d="M174.835,348.058c2.2-0.32,3.68-2.36,3.36-4.564c-0.32-2.16-2.32-3.68-4.52-3.36c-2.2,0.32-3.68,2.36-3.4,4.52
				c0.32,2,2.04,3.44,3.96,3.444C174.435,348.098,174.635,348.058,174.835,348.058z"/>
			<path d="M177.515,363.814c2.16-0.396,3.6-2.48,3.24-4.64c-0.4-2.16-2.48-3.64-4.64-3.24c-2.2,0.396-3.64,2.48-3.24,4.64
				c0.32,1.916,2,3.32,3.92,3.324C177.035,363.898,177.275,363.854,177.515,363.814z"/>
			<path d="M180.675,379.494c2.16-0.44,3.52-2.56,3.08-4.72c-0.44-2.16-2.56-3.556-4.72-3.12c-2.2,0.48-3.56,2.6-3.12,4.76
				c0.4,1.88,2.08,3.16,3.92,3.16C180.115,379.574,180.395,379.574,180.675,379.494z"/>
			<path d="M210.195,462.01c-1.88,1.16-2.44,3.64-1.28,5.524c0.76,1.24,2.04,1.88,3.4,1.876c0.72,0,1.44-0.196,2.08-0.6
				c1.88-1.16,2.48-3.596,1.32-5.48C214.555,461.45,212.075,460.85,210.195,462.01z"/>
			<path d="M247.915,493.81c-2.08-0.72-4.36,0.36-5.08,2.48c-0.72,2.084,0.36,4.36,2.44,5.084c0.44,0.16,0.88,0.2,1.32,0.2
				c1.68,0,3.2-1,3.8-2.68C251.115,496.81,249.995,494.534,247.915,493.81z"/>
			<path d="M252.035,0.054c-2.2,0.36-3.68,2.4-3.32,4.6c0.32,1.96,2.04,3.36,3.96,3.36c0.2,0,0.4-0.04,0.64-0.04
				c2.2-0.36,3.64-2.44,3.32-4.6C256.275,1.174,254.195-0.306,252.035,0.054z"/>
			<path d="M172.635,332.17c2.16-0.236,3.76-2.236,3.48-4.436v0.04c-0.24-2.2-2.24-3.8-4.44-3.52c-2.2,0.236-3.76,2.236-3.48,4.44
				c0.24,2.04,1.96,3.52,3.96,3.52C172.315,332.214,172.475,332.214,172.635,332.17z"/>
			<path d="M228.475,17.054c-1.6-1.52-4.16-1.44-5.64,0.16c-1.56,1.6-1.48,4.12,0.12,5.64c0.8,0.72,1.76,1.12,2.76,1.12
				c1.04,0,2.12-0.44,2.92-1.28C230.155,21.094,230.075,18.574,228.475,17.054z"/>
			<path d="M218.995,475.374c-1.68,1.396-1.92,3.916-0.52,5.636c0.76,0.964,1.92,1.444,3.08,1.44c0.88,0,1.8-0.28,2.52-0.916
				c1.72-1.4,1.96-3.92,0.56-5.6C223.235,474.214,220.715,473.97,218.995,475.374z"/>
			<path d="M235.315,486.614c-1.72-1.36-4.24-1.08-5.64,0.64c-1.36,1.716-1.08,4.236,0.64,5.596c0.72,0.604,1.64,0.884,2.48,0.884
				c1.2,0,2.36-0.52,3.16-1.48C237.315,490.494,237.035,487.974,235.315,486.614z"/>
			<path d="M261.795,495.334c-2.2,0.28-3.76,2.28-3.48,4.48c0.28,2,2,3.48,4,3.48c0.16,0,0.32,0,0.48,0
				c2.2-0.32,3.76-2.32,3.48-4.48C265.995,496.614,263.995,495.058,261.795,495.334z"/>
		</g>
	</g>
</g>
<g>
	<g>
		<g>
			<path d="M160.755,109.334c0-0.04,0-0.04,0-0.04c-2.16-0.52-4.32,0.8-4.88,2.96c-0.52,2.12,0.8,4.28,2.96,4.84
				c0.32,0.08,0.64,0.12,0.92,0.12c1.8,0,3.44-1.24,3.92-3.08C164.195,112.014,162.875,109.854,160.755,109.334z"/>
			<path d="M185.355,308.214c-1.88-1.204-4.32-0.64-5.52,1.2c-1.2,1.84-0.68,4.32,1.16,5.52c0.68,0.44,1.44,0.64,2.16,0.64
				c1.32,0,2.6-0.64,3.36-1.8C187.715,311.894,187.195,309.414,185.355,308.214z"/>
			<path d="M159.115,290.294c-1.8-1.284-4.32-0.88-5.6,0.92c-1.28,1.8-0.88,4.28,0.92,5.56c0.68,0.52,1.52,0.76,2.32,0.76
				c1.24,0,2.48-0.56,3.24-1.64C161.315,294.094,160.915,291.574,159.115,290.294z"/>
			<path d="M176.355,113.494c-2.12-0.6-4.36,0.6-4.96,2.72c-0.64,2.12,0.6,4.36,2.72,4.96c0.36,0.12,0.76,0.16,1.12,0.16
				c1.72,0,3.32-1.12,3.84-2.88C179.675,116.334,178.475,114.094,176.355,113.494z"/>
			<path d="M172.115,299.41c-1.84-1.24-4.32-0.76-5.56,1.04c-1.24,1.84-0.76,4.32,1.04,5.56c0.68,0.48,1.48,0.724,2.24,0.72
				c1.28,0,2.56-0.6,3.32-1.76C174.395,303.166,173.955,300.65,172.115,299.41z"/>
			<path d="M128.235,271.614c-1.4,1.72-1.12,4.236,0.6,5.64c0.72,0.596,1.64,0.88,2.52,0.88c1.16,0,2.32-0.48,3.08-1.48
				c1.4-1.72,1.12-4.236-0.56-5.64C132.155,269.654,129.635,269.894,128.235,271.614z"/>
			<path d="M144.955,105.814c-2.2-0.44-4.28,0.96-4.72,3.12c-0.44,2.2,1,4.28,3.16,4.72c0.28,0.04,0.52,0.08,0.8,0.08
				c1.84,0,3.52-1.32,3.88-3.24C148.515,108.334,147.115,106.214,144.955,105.814z"/>
			<path d="M146.355,280.81v0.04c-1.76-1.36-4.28-1.036-5.6,0.724c-1.36,1.756-1,4.276,0.76,5.64c0.72,0.52,1.56,0.796,2.4,0.796
				c1.2,0,2.4-0.56,3.2-1.56C148.435,284.694,148.115,282.17,146.355,280.81z"/>
			<path d="M128.395,111.054c1.96,0,3.68-1.44,3.96-3.44c0.32-2.2-1.2-4.2-3.4-4.52c-2.2-0.32-4.2,1.2-4.52,3.4
				c-0.32,2.2,1.24,4.2,3.4,4.52C128.035,111.054,128.235,111.054,128.395,111.054z"/>
			<path d="M226.275,332.734c-1.96-1.08-4.36-0.356-5.44,1.56c-1.08,1.92-0.36,4.356,1.56,5.44c0.6,0.32,1.28,0.48,1.92,0.48
				c1.4,0,2.8-0.724,3.52-2.044C228.915,336.214,228.195,333.774,226.275,332.734z"/>
			<path d="M238.995,140.734c0.88-2.04-0.04-4.4-2.08-5.24c-2.04-0.88-4.4,0.04-5.28,2.08c-0.84,2,0.08,4.36,2.12,5.24
				c0.52,0.24,1.04,0.32,1.56,0.32C236.875,143.134,238.355,142.254,238.995,140.734z"/>
			<path d="M240.275,340.25c-1.96-1.04-4.4-0.28-5.4,1.68c-1.04,1.964-0.28,4.4,1.68,5.4c0.6,0.324,1.24,0.444,1.84,0.44
				c1.48,0,2.84-0.76,3.56-2.12C242.995,343.69,242.235,341.25,240.275,340.25z"/>
			<path d="M224.275,134.494c0.8-2.04-0.2-4.36-2.24-5.2c-2.04-0.8-4.4,0.2-5.2,2.24c-0.8,2.04,0.16,4.4,2.24,5.2
				c0.48,0.2,1,0.28,1.48,0.28C222.155,137.014,223.635,136.054,224.275,134.494z"/>
			<path d="M209.355,128.694c0.76-2.08-0.28-4.4-2.36-5.16c-2.08-0.72-4.4,0.32-5.12,2.4c-0.76,2.08,0.28,4.4,2.36,5.12
				c0.48,0.16,0.92,0.24,1.36,0.24C207.235,131.294,208.795,130.294,209.355,128.694z"/>
			<path d="M198.795,316.694c-1.88-1.16-4.36-0.564-5.52,1.316c-1.16,1.884-0.56,4.364,1.32,5.524c0.68,0.4,1.4,0.6,2.12,0.596
				c1.32,0,2.64-0.676,3.4-1.916C201.275,320.33,200.675,317.85,198.795,316.694z"/>
			<path d="M212.435,324.898c-1.92-1.124-4.36-0.48-5.48,1.436c-1.12,1.884-0.48,4.364,1.44,5.48c0-0.04,0-0.04,0-0.04
				c0.64,0.396,1.32,0.556,2,0.56c1.4,0,2.72-0.72,3.48-2C214.995,328.458,214.355,325.978,212.435,324.898z"/>
			<path d="M194.315,123.334c0.68-2.12-0.48-4.36-2.56-5.08c-2.08-0.68-4.36,0.48-5.04,2.56c-0.72,2.08,0.44,4.36,2.52,5.04
				c0.44,0.16,0.84,0.2,1.28,0.2C192.195,126.054,193.755,125.014,194.315,123.334z"/>
			<path d="M112.755,101.414c0.002,0,0.004,0.001,0.006,0.001c0.012,0.001,0.023-0.002,0.034-0.001
				C112.795,101.414,112.795,101.414,112.755,101.414z"/>
			<path d="M48.715,115.094c-1.68,1.4-1.92,3.92-0.52,5.64c0.8,0.92,1.92,1.44,3.08,1.44c0.92,0,1.8-0.32,2.56-0.92
				c1.72-1.44,1.92-3.96,0.52-5.64C52.955,113.894,50.435,113.694,48.715,115.094z"/>
			<path d="M43.275,127.094c-2-0.88-4.36,0-5.28,2.04c-0.88,2,0.04,4.36,2.04,5.28c0.52,0.24,1.08,0.36,1.64,0.36
				c1.52,0,3-0.92,3.64-2.4C46.195,130.374,45.315,127.974,43.275,127.094z"/>
			<path d="M39.755,158.254c-2.12,0.56-3.36,2.76-2.8,4.88c0.48,1.8,2.12,2.96,3.88,2.96c0.32,0,0.68-0.04,1.04-0.12
				c2.12-0.6,3.4-2.8,2.8-4.92C44.115,158.894,41.915,157.654,39.755,158.254z"/>
			<path d="M61.635,202.934c-1.8,1.28-2.2,3.8-0.88,5.6c0.8,1.04,2,1.6,3.24,1.6c0.8,0,1.64-0.24,2.36-0.76
				c1.76-1.32,2.16-3.84,0.84-5.6C65.915,201.974,63.395,201.614,61.635,202.934z"/>
			<path d="M465.675,326.85h0.04c0.64,1.48,2.08,2.32,3.6,2.32c0.56,0,1.16-0.12,1.72-0.4c1.96-0.92,2.84-3.32,1.88-5.32
				c-0.92-2-3.32-2.836-5.32-1.916C465.595,322.49,464.755,324.85,465.675,326.85z"/>
			<path d="M116.035,261.294c-1.44,1.68-1.28,4.2,0.4,5.64c0.76,0.64,1.68,0.96,2.64,0.964c1.12,0,2.24-0.484,3-1.404
				c1.44-1.68,1.28-4.2-0.4-5.64S117.475,259.614,116.035,261.294z"/>
			<path d="M253.555,147.374c0.92-2.04,0.04-4.4-1.96-5.32s-4.4-0.08-5.32,1.92c-0.92,2.04-0.04,4.4,1.96,5.32
				c0.56,0.28,1.12,0.4,1.68,0.4C251.435,149.694,252.875,148.814,253.555,147.374z"/>
			<path d="M80.595,110.374c0.2,0,0.4,0,0.64-0.04c2.16-0.36,3.68-2.4,3.32-4.56c-0.36-2.2-2.4-3.68-4.6-3.36
				c-2.16,0.36-3.64,2.4-3.32,4.6C76.955,108.974,78.675,110.374,80.595,110.374z"/>
			<path d="M42.555,146.334c0-2.24-1.8-4-4-4c-2.2-0.04-4,1.76-4,3.96c0,2.24,1.76,4.04,4,4.04
				C40.755,150.334,42.555,148.534,42.555,146.334z"/>
			<path d="M76.955,216.174c-1.44-1.72-3.96-1.92-5.64-0.52c-1.68,1.4-1.92,3.92-0.52,5.64c0.8,0.92,1.92,1.44,3.08,1.44
				c0.92,0,1.8-0.32,2.56-0.96c1.68-1.4,1.92-3.92,0.52-5.64V216.174z"/>
			<path d="M471.155,341.17c0.52,1.764,2.12,2.884,3.88,2.88c0.36,0,0.72-0.044,1.08-0.16c2.12-0.6,3.36-2.8,2.76-4.92
				c-0.64-2.12-2.84-3.356-4.96-2.756C471.795,336.81,470.555,339.054,471.155,341.17z"/>
			<path d="M116.475,105.654c0.16-2.198-1.517-4.116-3.714-4.239c-2.225-0.141-4.126,1.49-4.246,3.679
				c-0.16,2.24,1.52,4.12,3.72,4.28c0.08,0,0.16,0,0.28,0C114.595,109.374,116.355,107.774,116.475,105.654z"/>
			<path d="M104.155,250.574c-1.48,1.6-1.4,4.16,0.24,5.64c0.76,0.72,1.76,1.04,2.72,1.04c1.08,0,2.16-0.44,2.92-1.28
				c1.52-1.6,1.4-4.16-0.2-5.64C108.195,248.814,105.675,248.934,104.155,250.574z"/>
			<path d="M81.715,227.774c-1.6,1.52-1.72,4.04-0.2,5.68c0.76,0.84,1.84,1.28,2.92,1.28c0.96,0,1.96-0.36,2.72-1.08
				c1.6-1.48,1.72-4.04,0.24-5.64C85.875,226.374,83.355,226.294,81.715,227.774z"/>
			<path d="M92.715,239.414c-1.56,1.56-1.56,4.08,0,5.64c0.8,0.8,1.8,1.16,2.84,1.16s2.04-0.4,2.84-1.16
				c1.56-1.56,1.52-4.12-0.04-5.68S94.275,237.814,92.715,239.414z"/>
			<path d="M96.435,101.014c-2.24,0.04-3.96,1.88-3.92,4.08c0.08,2.16,1.84,3.92,4,3.92c0.04,0,0.08,0,0.12-0.04
				c2.2-0.04,3.92-1.88,3.88-4.08C100.475,102.694,98.635,100.934,96.435,101.014z"/>
			<path d="M63.715,106.614c-2.08,0.76-3.12,3.08-2.32,5.12c0.6,1.6,2.12,2.6,3.72,2.6c0.48,0,0.96-0.08,1.44-0.24
				c2.08-0.8,3.12-3.12,2.32-5.16C68.075,106.854,65.795,105.814,63.715,106.614z"/>
			<path d="M406.835,247.854c-1.48,1.64-1.4,4.16,0.2,5.68c0.8,0.72,1.76,1.04,2.76,1.04c1.04,0,2.12-0.4,2.92-1.28
				c1.48-1.6,1.4-4.16-0.24-5.64C410.875,246.134,408.355,246.254,406.835,247.854z"/>
			<path d="M404.875,393.814c-2.2-0.12-4.08,1.56-4.24,3.76c-0.12,2.2,1.56,4.08,3.76,4.24c0.08,0,0.16,0,0.24,0
				c2.12,0,3.88-1.64,4-3.756C408.755,395.854,407.115,393.974,404.875,393.814z"/>
			<path d="M420.475,394.094c-2.2,0.076-3.92,1.916-3.84,4.16c0.04,2.16,1.84,3.84,4,3.84c0.04,0,0.08,0,0.12,0
				c2.2-0.08,3.92-1.92,3.88-4.12C424.555,395.774,422.715,394.054,420.475,394.094z"/>
			<path d="M375.435,216.574c-1.72-1.32-4.24-1-5.6,0.76c-1.32,1.76-1,4.24,0.76,5.6c0.72,0.56,1.56,0.84,2.44,0.84
				c1.2,0,2.36-0.56,3.16-1.6C377.555,220.414,377.195,217.934,375.435,216.574z"/>
			<path d="M389.275,392.254c-2.2-0.284-4.2,1.236-4.52,3.44c-0.28,2.156,1.24,4.2,3.44,4.476c0.2,0.044,0.36,0.044,0.52,0.044
				c2,0,3.72-1.44,4-3.44C392.995,394.574,391.475,392.534,389.275,392.254z"/>
			<path d="M388.675,232.174c1.4-1.72,1.16-4.24-0.56-5.64c-1.72-1.36-4.24-1.12-5.64,0.6c-1.4,1.72-1.12,4.24,0.6,5.64
				c0.72,0.6,1.64,0.88,2.52,0.88C386.755,233.654,387.915,233.174,388.675,232.174z"/>
			<path d="M435.355,270.494c-1.52-1.644-4.04-1.76-5.68-0.24c-1.6,1.48-1.72,4-0.24,5.64c0.8,0.88,1.88,1.276,2.96,1.28
				c0.96,0,1.92-0.32,2.72-1.04C436.715,274.654,436.835,272.134,435.355,270.494z"/>
			<path d="M400.475,236.894c-1.68-1.44-4.2-1.24-5.64,0.4c-1.44,1.68-1.28,4.2,0.4,5.68c0.76,0.64,1.68,0.96,2.6,0.96
				c1.12,0,2.24-0.48,3.04-1.4C402.315,240.854,402.115,238.334,400.475,236.894z"/>
			<path d="M418.475,258.85c-1.56,1.56-1.56,4.08,0,5.64c0.8,0.764,1.8,1.164,2.84,1.16c1.04,0,2.04-0.4,2.84-1.16
				c1.56-1.56,1.56-4.116,0-5.68C422.595,257.254,420.035,257.254,418.475,258.85z"/>
			<path d="M462.995,381.294c-1.68,1.48-1.84,4-0.36,5.64c0.76,0.916,1.88,1.36,3,1.36c0.92,0,1.88-0.32,2.64-0.96
				c1.64-1.48,1.8-4,0.36-5.68C467.155,380.014,464.635,379.854,462.995,381.294z"/>
			<path d="M476.355,367.734c-2.04-0.84-4.4,0.16-5.2,2.2c-0.84,2.04,0.16,4.36,2.2,5.2c0.48,0.196,1,0.32,1.48,0.32
				c1.6,0,3.08-0.96,3.72-2.52C479.395,370.894,478.395,368.574,476.355,367.734z"/>
			<path d="M477.475,351.81c-2.2,0.04-3.96,1.84-3.92,4.084c0.04,2.16,1.84,3.92,4,3.916c0.04,0,0.08,0,0.08,0
				c2.2-0.08,3.96-1.88,3.92-4.08C481.515,353.49,479.675,351.73,477.475,351.81z"/>
			<path d="M463.755,314.534c1.88-1.16,2.48-3.64,1.32-5.524c-1.16-1.88-3.6-2.476-5.48-1.316c-1.88,1.156-2.48,3.636-1.32,5.52
				c0.72,1.24,2.04,1.92,3.4,1.916C462.395,315.13,463.115,314.934,463.755,314.534z"/>
			<path d="M450.395,294.614c-1.8,1.28-2.16,3.8-0.88,5.6c0.8,1.08,2,1.636,3.24,1.636c0.8,0,1.64-0.236,2.36-0.756
				c1.8-1.32,2.16-3.8,0.88-5.6C454.675,293.698,452.195,293.294,450.395,294.614z"/>
			<path d="M440.355,282.174c-1.68,1.4-1.92,3.92-0.52,5.6c0.8,0.96,1.92,1.48,3.08,1.48c0.92,0,1.8-0.32,2.56-0.92
				c1.68-1.436,1.92-3.956,0.52-5.636C444.595,280.974,442.075,280.738,440.355,282.174z"/>
			<path d="M435.875,392.654c-2.2,0.356-3.64,2.44-3.28,4.6c0.32,1.96,2,3.36,3.92,3.36c0.24,0,0.44-0.04,0.68-0.08
				c2.2-0.36,3.64-2.44,3.28-4.6C440.115,393.738,438.035,392.294,435.875,392.654z"/>
			<path d="M450.475,388.694c-2.08,0.84-3.08,3.156-2.24,5.2c0.6,1.56,2.12,2.52,3.72,2.516c0.48,0,0.96-0.08,1.44-0.28
				c2.08-0.8,3.08-3.12,2.28-5.16C454.835,388.894,452.515,387.894,450.475,388.694z"/>
			<path d="M373.715,389.694c-2.16-0.44-4.28,1-4.68,3.156c-0.44,2.16,1,4.28,3.16,4.684c0.24,0.04,0.52,0.08,0.76,0.08
				c1.88,0,3.56-1.324,3.92-3.24C377.315,392.214,375.875,390.094,373.715,389.694z"/>
			<path d="M312.835,372.414c-2.08-0.76-4.36,0.32-5.12,2.4c-0.76,2.08,0.32,4.36,2.4,5.12c0.44,0.16,0.92,0.236,1.36,0.236
				c1.64,0,3.16-1,3.76-2.636C315.995,375.454,314.915,373.17,312.835,372.414z"/>
			<path d="M283.315,360.734c-2.04-0.88-4.36,0.04-5.24,2.08c-0.88,2.036,0.04,4.4,2.08,5.28c0.52,0.2,1.04,0.32,1.56,0.32
				c1.56,0,3.04-0.92,3.68-2.44C286.275,363.934,285.355,361.574,283.315,360.734z"/>
			<path d="M296.195,169.334c1.08-1.92,0.36-4.36-1.56-5.4c-1.96-1.08-4.36-0.4-5.44,1.52c-1.08,1.96-0.4,4.4,1.56,5.44
				c0.6,0.36,1.28,0.52,1.92,0.52C294.075,171.414,295.435,170.654,296.195,169.334z"/>
			<path d="M310.035,177.334c1.12-1.88,0.48-4.36-1.44-5.48c-1.92-1.08-4.36-0.44-5.48,1.44c-1.12,1.92-0.48,4.36,1.44,5.48
				c0.64,0.36,1.32,0.56,2.04,0.56C307.955,179.334,309.275,178.614,310.035,177.334z"/>
			<path d="M297.995,366.77c-2.04-0.8-4.4,0.2-5.2,2.24c-0.8,2.084,0.2,4.404,2.24,5.204c0.48,0.2,1,0.276,1.48,0.276
				c1.6,0,3.08-0.956,3.72-2.52C301.035,369.93,300.035,367.61,297.995,366.77z"/>
			<path d="M267.955,154.334c0.96-1.96,0.16-4.36-1.84-5.36c-1.96-0.96-4.36-0.16-5.36,1.84c-0.96,1.96-0.16,4.36,1.84,5.36
				c0.56,0.28,1.16,0.4,1.76,0.4C265.835,156.574,267.235,155.774,267.955,154.334z"/>
			<path d="M268.795,354.254c-2-0.924-4.36-0.04-5.28,1.96c-0.96,2-0.08,4.4,1.92,5.32c0.56,0.24,1.12,0.36,1.68,0.36
				c1.52,0,2.96-0.884,3.64-2.32C271.675,357.574,270.795,355.17,268.795,354.254z"/>
			<path d="M282.155,161.694c1-1.96,0.28-4.4-1.68-5.4c-1.96-1.04-4.4-0.28-5.4,1.68c-1.04,1.96-0.28,4.36,1.68,5.4
				c0.6,0.32,1.24,0.44,1.84,0.44C280.035,163.814,281.435,163.054,282.155,161.694z"/>
			<path d="M335.995,188.774c-1.84-1.2-4.32-0.68-5.52,1.16c-1.24,1.84-0.68,4.32,1.16,5.56c0.68,0.4,1.44,0.64,2.16,0.64
				c1.32,0,2.6-0.64,3.36-1.84C338.355,192.454,337.835,189.974,335.995,188.774z"/>
			<path d="M358.275,386.294c-2.16-0.52-4.32,0.8-4.84,2.96c-0.52,2.12,0.8,4.28,2.96,4.8c0.32,0.08,0.64,0.116,0.96,0.12
				c1.8,0,3.44-1.2,3.88-3.04C361.755,388.974,360.435,386.814,358.275,386.294z"/>
			<path d="M349.355,197.694c-1.8-1.24-4.28-0.8-5.56,1.04c-1.24,1.84-0.76,4.32,1.04,5.56c0.72,0.48,1.48,0.72,2.28,0.72
				c1.28,0,2.52-0.64,3.28-1.76C351.675,201.454,351.195,198.934,349.355,197.694z"/>
			<path d="M362.555,206.974c-1.8-1.32-4.32-0.92-5.6,0.88c-1.32,1.8-0.92,4.28,0.88,5.6c0.72,0.52,1.52,0.76,2.36,0.76
				c1.24,0,2.44-0.56,3.24-1.64C364.715,210.774,364.315,208.254,362.555,206.974z"/>
			<path d="M323.715,185.654c1.16-1.88,0.56-4.32-1.32-5.48c-1.88-1.2-4.36-0.6-5.52,1.28c-1.16,1.88-0.56,4.36,1.32,5.52
				c0.64,0.4,1.4,0.6,2.08,0.6C321.635,187.574,322.955,186.894,323.715,185.654z"/>
			<path d="M327.835,377.574c-2.12-0.68-4.36,0.48-5.04,2.596c-0.68,2.084,0.44,4.32,2.56,5c0.4,0.16,0.84,0.204,1.24,0.204
				c1.68,0,3.24-1.04,3.8-2.76C331.075,380.534,329.915,378.294,327.835,377.574z"/>
			<path d="M254.435,347.414c-1.96-0.96-4.36-0.16-5.32,1.84c-1,1.96-0.2,4.4,1.8,5.36c0.56,0.28,1.16,0.396,1.76,0.4
				c1.48,0,2.92-0.8,3.6-2.24C257.235,350.814,256.435,348.414,254.435,347.414z"/>
			<path d="M342.995,382.218c-2.12-0.604-4.36,0.636-4.96,2.756c-0.6,2.12,0.6,4.36,2.72,4.96c0.4,0.076,0.76,0.16,1.12,0.16
				c1.76,0,3.32-1.16,3.84-2.92C346.315,385.058,345.115,382.854,342.995,382.218z"/>
		</g>
	</g>
</g>
<g>
	<g>
		<g>
			<path d="M152.475,387.574c-2.16,0.48-3.52,2.64-3.04,4.756c0.44,1.884,2.08,3.124,3.88,3.124c0.32,0,0.6-0.04,0.92-0.08
				c2.16-0.524,3.48-2.64,3-4.8C156.755,388.414,154.635,387.054,152.475,387.574z"/>
			<path d="M150.755,213.974c-1.32-1.76-3.84-2.12-5.6-0.8c-1.8,1.32-2.12,3.84-0.8,5.6c0.76,1.04,1.96,1.6,3.2,1.6
				c0.84,0,1.68-0.24,2.4-0.8C151.715,218.254,152.075,215.734,150.755,213.974z"/>
			<path d="M158.155,203.694c-1.8,1.28-2.24,3.76-0.96,5.56c0.8,1.12,2.04,1.72,3.28,1.72c0.8,0,1.6-0.24,2.32-0.76
				c1.8-1.28,2.2-3.76,0.92-5.56C162.435,202.854,159.955,202.414,158.155,203.694z"/>
			<path d="M136.995,390.698c-2.2,0.356-3.64,2.436-3.28,4.596c0.36,1.96,2.04,3.32,3.96,3.324c0.2,0,0.44,0,0.68-0.04
				c2.16-0.4,3.64-2.48,3.24-4.64C141.235,391.738,139.155,390.294,136.995,390.698z"/>
			<path d="M119.915,233.254c-1.68,1.4-1.88,3.96-0.44,5.64c0.76,0.92,1.92,1.4,3.04,1.4c0.92,0,1.84-0.32,2.56-0.96
				c1.72-1.4,1.92-3.92,0.48-5.6C124.115,232.014,121.635,231.814,119.915,233.254z"/>
			<path d="M167.795,383.738c-2.12,0.556-3.4,2.756-2.8,4.916c0.48,1.76,2.12,2.92,3.88,2.92c0.32,0,0.68-0.04,1.04-0.12
				c2.12-0.6,3.36-2.8,2.8-4.916C172.155,384.418,169.955,383.138,167.795,383.738z"/>
			<path d="M121.395,392.93c-2.2,0.24-3.76,2.24-3.52,4.4c0.24,2.044,1.96,3.564,3.96,3.56c0.16,0,0.32,0,0.44,0
				c2.2-0.24,3.8-2.24,3.52-4.44C125.555,394.25,123.595,392.69,121.395,392.93z"/>
			<path d="M137.395,229.294c-0.04,0-0.04,0-0.04,0c1.76-1.4,2.04-3.88,0.64-5.6c-1.36-1.76-3.88-2.04-5.6-0.68
				c-1.72,1.4-2,3.92-0.64,5.64c0.8,1,1.96,1.52,3.12,1.52C135.755,230.174,136.635,229.894,137.395,229.294z"/>
			<path d="M171.395,194.534c-1.84,1.24-2.32,3.72-1.08,5.56c0.76,1.16,2.04,1.76,3.32,1.76c0.76,0,1.52-0.2,2.2-0.68
				c1.84-1.24,2.36-3.72,1.12-5.56C175.715,193.814,173.235,193.294,171.395,194.534z"/>
			<path d="M214.355,176.534c0.68,0,1.36-0.16,2-0.52c1.92-1.12,2.56-3.56,1.48-5.48c-1.12-1.92-3.56-2.56-5.48-1.48
				c-1.88,1.12-2.56,3.56-1.48,5.48C211.635,175.814,212.995,176.534,214.355,176.534z"/>
			<path d="M212.955,368.814c-2.08,0.8-3.08,3.08-2.28,5.16c0.6,1.6,2.12,2.56,3.72,2.56c0.48,0,0.96-0.08,1.44-0.28
				c2.04-0.8,3.08-3.08,2.28-5.16C217.315,369.058,215.035,368.014,212.955,368.814z"/>
			<path d="M198.515,177.254c-1.88,1.12-2.48,3.6-1.36,5.48c0.76,1.24,2.08,1.92,3.44,1.92c0.72,0,1.4-0.2,2.08-0.56
				c1.88-1.16,2.48-3.64,1.32-5.52C202.875,176.694,200.395,176.094,198.515,177.254z"/>
			<path d="M228.315,168.734c0.64,0,1.32-0.16,1.92-0.48c1.92-1.08,2.64-3.48,1.6-5.44c-1.04-1.92-3.48-2.64-5.4-1.6
				c-1.96,1.04-2.68,3.48-1.64,5.44C225.555,167.974,226.915,168.734,228.315,168.734z"/>
			<path d="M198.075,374.29c-2.08,0.72-3.2,3-2.48,5.084c0.6,1.636,2.12,2.68,3.8,2.68c0.44,0,0.88-0.084,1.32-0.244
				c2.08-0.72,3.16-3,2.44-5.08C202.435,374.65,200.155,373.534,198.075,374.29z"/>
			<path d="M182.995,379.294c-2.08,0.64-3.28,2.88-2.6,5c0.52,1.68,2.12,2.8,3.8,2.8c0.4,0,0.8-0.084,1.2-0.2
				c2.12-0.64,3.28-2.884,2.64-5C187.355,379.774,185.115,378.614,182.995,379.294z"/>
			<path d="M184.835,185.734c-1.84,1.16-2.4,3.64-1.2,5.52c0.76,1.2,2.04,1.84,3.36,1.84c0.76,0,1.48-0.2,2.16-0.64
				c1.84-1.16,2.4-3.64,1.24-5.52C189.195,185.094,186.715,184.534,184.835,185.734z"/>
			<path d="M470.155,127.614c0.88,0,1.76-0.28,2.48-0.84c1.72-1.36,2.04-3.88,0.68-5.6c-1.36-1.76-3.88-2.08-5.6-0.68
				c-1.76,1.36-2.08,3.84-0.72,5.6C467.795,127.094,468.995,127.614,470.155,127.614z"/>
			<path d="M38.475,354.214c0.16,0,0.32,0.04,0.48,0.04c2,0,3.72-1.48,3.96-3.52c0.28-2.2-1.24-4.2-3.44-4.48
				c-2.2-0.28-4.2,1.28-4.48,3.48C34.715,351.934,36.275,353.934,38.475,354.214z"/>
			<path d="M43.475,365.214c-0.52-2.16-2.64-3.48-4.8-3c-2.16,0.52-3.48,2.68-3,4.796c0.44,1.884,2.08,3.124,3.88,3.12
				c0.32,0,0.64-0.036,0.92-0.12C42.635,369.534,43.955,367.374,43.475,365.214z"/>
			<path d="M44.035,377.254c-1.68,1.396-1.92,3.916-0.52,5.64c0.8,0.92,1.96,1.436,3.08,1.436c0.92,0,1.8-0.32,2.56-0.956
				c1.72-1.4,1.92-3.92,0.52-5.6C48.235,376.054,45.715,375.814,44.035,377.254z"/>
			<path d="M51.155,316.61c-1.96-1.04-4.36-0.28-5.4,1.68c-1.04,1.964-0.28,4.404,1.68,5.404c0.6,0.316,1.24,0.476,1.84,0.476
				c1.44,0,2.84-0.796,3.56-2.16C53.875,320.05,53.115,317.65,51.155,316.61z"/>
			<path d="M472.835,138.814c0.4,1.92,2.04,3.2,3.92,3.2c0.28,0,0.52,0,0.8-0.08c2.16-0.44,3.56-2.56,3.12-4.72
				c-0.44-2.16-2.56-3.56-4.72-3.12C473.795,134.534,472.395,136.654,472.835,138.814z"/>
			<path d="M41.475,338.534c0.44,0.16,0.88,0.24,1.32,0.24c1.64,0,3.2-1.04,3.8-2.68c0.72-2.08-0.36-4.36-2.44-5.12
				c-2.08-0.72-4.36,0.356-5.12,2.44C38.275,335.49,39.395,337.774,41.475,338.534z"/>
			<path d="M57.435,310.414c1.28,0,2.56-0.64,3.36-1.84c0,0.04,0,0.04,0,0.04c1.2-1.88,0.68-4.36-1.16-5.56
				c-1.84-1.204-4.32-0.724-5.56,1.16c-1.2,1.84-0.68,4.32,1.16,5.52C55.915,310.17,56.675,310.414,57.435,310.414z"/>
			<path d="M227.675,362.894c0.04,0,0.04,0,0.04,0c-2.04,0.84-3.04,3.2-2.16,5.24c0.64,1.52,2.12,2.44,3.68,2.44
				c0.52,0,1.04-0.08,1.56-0.32c2-0.84,3-3.2,2.12-5.244C232.075,362.974,229.715,362.01,227.675,362.894z"/>
			<path d="M90.195,393.814c-2.2-0.16-4.12,1.52-4.28,3.724c-0.16,2.196,1.52,4.116,3.72,4.276c0.08,0,0.2,0,0.28,0
				c2.08,0,3.84-1.6,4-3.72C94.075,395.898,92.395,393.974,90.195,393.814z"/>
			<path d="M60.955,386.574c-1.96-1.04-4.4-0.28-5.4,1.68c-1.04,1.964-0.28,4.4,1.68,5.4c0.6,0.32,1.24,0.48,1.84,0.48
				c1.44,0,2.84-0.8,3.56-2.16C63.675,390.01,62.915,387.574,60.955,386.574z"/>
			<path d="M90.435,271.85c1.52-1.596,1.44-4.116-0.16-5.636c-1.6-1.52-4.12-1.48-5.64,0.16c-1.52,1.596-1.44,4.116,0.16,5.636
				c0.76,0.724,1.76,1.084,2.72,1.084C88.595,273.094,89.635,272.694,90.435,271.85z"/>
			<path d="M107.795,243.854c-1.64,1.48-1.8,4-0.32,5.64c0.8,0.88,1.88,1.32,3,1.32c0.96,0,1.92-0.32,2.68-1.04
				c1.64-1.48,1.76-4,0.28-5.64S109.435,242.374,107.795,243.854z"/>
			<path d="M105.755,394.094c-2.2,0.076-3.92,1.916-3.84,4.12c0.04,2.2,1.92,3.96,4.12,3.88c2.2-0.084,3.92-1.924,3.84-4.12
				C109.835,395.734,107.955,394.01,105.755,394.094z"/>
			<path d="M101.635,254.97c-1.52-1.6-4.04-1.64-5.64-0.08c-1.6,1.524-1.64,4.044-0.08,5.644c0.8,0.796,1.84,1.2,2.88,1.196
				c1,0,2-0.36,2.76-1.12C103.155,259.054,103.195,256.534,101.635,254.97z"/>
			<path d="M69.115,290.214c-1.72-1.364-4.24-1.04-5.6,0.72c-1.32,1.76-1,4.28,0.76,5.6c0.72,0.56,1.56,0.84,2.44,0.84
				c1.2,0,2.36-0.564,3.16-1.564C71.235,294.054,70.875,291.534,69.115,290.214z"/>
			<path d="M75.035,391.614c-2.16-0.52-4.32,0.84-4.84,2.96c-0.48,2.16,0.84,4.32,3,4.8c0.32,0.08,0.6,0.116,0.92,0.12
				c1.8,0,3.44-1.24,3.88-3.08C78.515,394.254,77.155,392.094,75.035,391.614z"/>
			<path d="M73.755,278.374c-1.44,1.636-1.24,4.2,0.44,5.636c0.76,0.644,1.68,0.964,2.6,0.964c1.12,0,2.24-0.484,3.04-1.4
				c1.44-1.68,1.24-4.2-0.44-5.64C77.715,276.49,75.195,276.694,73.755,278.374z"/>
			<path d="M329.715,116.534c-2.12,0.68-3.28,2.92-2.6,5.04c0.52,1.68,2.12,2.8,3.8,2.8c0.4,0,0.8-0.08,1.2-0.2
				c2.12-0.68,3.28-2.92,2.64-5C334.075,117.054,331.835,115.894,329.715,116.534z"/>
			<path d="M435.635,220.334c-1.48,1.68-1.28,4.2,0.4,5.64c0.76,0.64,1.68,0.96,2.6,0.96c1.12,0,2.24-0.44,3.04-1.36
				c1.44-1.68,1.24-4.2-0.4-5.64C439.595,218.494,437.075,218.654,435.635,220.334z"/>
			<path d="M244.275,160.814c2-1,2.76-3.44,1.76-5.4c-1.04-1.96-3.44-2.72-5.4-1.72c-1.96,1-2.76,3.4-1.72,5.4
				c0.68,1.36,2.08,2.16,3.56,2.16C243.075,161.254,243.715,161.094,244.275,160.814z"/>
			<path d="M365.355,284.174c-1.76,1.32-2.12,3.84-0.8,5.6c0.76,1.04,2,1.6,3.2,1.6c0.84,0,1.68-0.24,2.4-0.8
				c1.76-1.32,2.12-3.84,0.8-5.6C369.635,283.218,367.115,282.854,365.355,284.174z"/>
			<path d="M424.995,232.014c-1.56,1.6-1.48,4.12,0.12,5.64c0.76,0.76,1.76,1.12,2.76,1.12c1.04,0,2.12-0.4,2.88-1.24
				c1.52-1.6,1.48-4.12-0.12-5.64C429.035,230.374,426.515,230.414,424.995,232.014z"/>
			<path d="M413.795,243.254c-1.56,1.52-1.6,4.04-0.08,5.64c0.8,0.8,1.84,1.2,2.88,1.2c1,0,2-0.36,2.76-1.12
				c1.6-1.52,1.64-4.04,0.12-5.64C417.955,241.734,415.395,241.694,413.795,243.254z"/>
			<path d="M390.235,264.454c-1.68,1.396-1.88,3.96-0.48,5.64c0.8,0.916,1.92,1.396,3.08,1.396c0.88,0,1.8-0.276,2.56-0.916
				c1.68-1.44,1.92-3.96,0.48-5.64C394.475,263.254,391.915,263.014,390.235,264.454z"/>
			<path d="M378.115,112.654c0-0.04,0-0.04,0-0.04c2.2-0.36,3.64-2.44,3.24-4.6c-0.36-2.2-2.44-3.64-4.64-3.24
				c-2.16,0.36-3.6,2.44-3.24,4.64c0.36,1.92,2.04,3.28,3.96,3.28C377.675,112.694,377.875,112.694,378.115,112.654z"/>
			<path d="M377.955,274.494c-1.76,1.356-2.04,3.88-0.68,5.6c0.8,1,1.96,1.52,3.16,1.52c0.88,0,1.76-0.28,2.48-0.84
				c1.72-1.396,2-3.92,0.64-5.64C382.195,273.414,379.675,273.134,377.955,274.494z"/>
			<path d="M426.915,109.374c0.12,0,0.2,0.04,0.32,0.04c2.04,0,3.8-1.6,4-3.68c0.16-2.2-1.48-4.16-3.68-4.32
				c-2.2-0.2-4.12,1.48-4.32,3.64C423.075,107.294,424.715,109.214,426.915,109.374z"/>
			<path d="M474.355,165.614c-2.08-0.8-4.4,0.28-5.16,2.36c-0.76,2.04,0.28,4.36,2.36,5.12c0.48,0.16,0.92,0.24,1.4,0.24
				c1.64,0,3.16-1,3.76-2.6C477.475,168.654,476.395,166.374,474.355,165.614z"/>
			<path d="M468.235,180.374c-1.96-1.04-4.4-0.32-5.44,1.64c-1.04,1.92-0.28,4.36,1.68,5.4c0.56,0.32,1.24,0.48,1.84,0.48
				c1.44,0,2.84-0.76,3.56-2.12C470.915,183.814,470.155,181.414,468.235,180.374z"/>
			<path d="M477.595,149.974c-2.2-0.32-4.24,1.2-4.56,3.4c0-0.04,0-0.04,0-0.04c-0.32,2.2,1.2,4.24,3.4,4.56
				c0.2,0.04,0.4,0.04,0.56,0.04c1.96,0,3.68-1.44,3.96-3.44C481.275,152.294,479.755,150.294,477.595,149.974z"/>
			<path d="M446.875,108.854c0.56-2.16-0.76-4.32-2.92-4.84c-2.12-0.56-4.32,0.76-4.84,2.92c-0.52,2.12,0.8,4.32,2.92,4.84
				c0.32,0.08,0.64,0.12,0.96,0.12C444.795,111.894,446.435,110.654,446.875,108.854z"/>
			<path d="M451.235,207.414c-1.76-1.36-4.28-1.04-5.6,0.72c-1.36,1.76-1.04,4.28,0.72,5.6c0.72,0.56,1.56,0.84,2.44,0.84
				c1.16,0,2.36-0.52,3.16-1.56C453.315,211.294,452.995,208.774,451.235,207.414z"/>
			<path d="M455.995,117.014c0.64,0.36,1.28,0.48,1.92,0.48c1.44,0,2.8-0.72,3.52-2.08c1.04-1.92,0.36-4.36-1.6-5.4
				c-1.92-1.08-4.36-0.36-5.44,1.56C453.355,113.534,454.075,115.974,455.995,117.014z"/>
			<path d="M460.315,194.254c-1.84-1.2-4.32-0.72-5.52,1.12c-1.24,1.84-0.72,4.32,1.12,5.56c0.68,0.44,1.44,0.64,2.2,0.64
				c1.28,0,2.56-0.6,3.32-1.76C462.675,197.974,462.155,195.494,460.315,194.254z"/>
			<path d="M402.195,254.01c0,0.04,0,0.04,0,0.04c-1.64,1.48-1.76,4.004-0.28,5.644c0.8,0.88,1.88,1.316,2.96,1.316
				c0.96,0,1.92-0.36,2.68-1.04c1.64-1.48,1.8-4,0.32-5.64S403.875,252.57,402.195,254.01z"/>
			<path d="M285.915,140.974c0.52,0,1.04-0.12,1.56-0.32c2.04-0.84,3-3.2,2.12-5.24c-0.84-2.04-3.2-3-5.2-2.12
				c-2.04,0.84-3,3.2-2.16,5.24C282.875,140.054,284.355,140.974,285.915,140.974z"/>
			<path d="M272.915,147.014c2-0.92,2.92-3.28,2-5.32c-0.92-2-3.28-2.88-5.28-1.96c-2.04,0.88-2.92,3.24-2,5.28
				c0.64,1.48,2.12,2.36,3.64,2.36C271.835,147.374,272.395,147.254,272.915,147.014z"/>
			<path d="M270.915,342.77c0,0.04,0,0.04,0,0.04c-1.96,1-2.76,3.404-1.76,5.36c0.72,1.404,2.12,2.16,3.56,2.156
				c0.64,0,1.24-0.116,1.84-0.436v0.04c1.96-1.04,2.76-3.444,1.72-5.4C275.275,342.57,272.875,341.77,270.915,342.77z"/>
			<path d="M284.995,335.378c-1.96,1.076-2.68,3.476-1.64,5.436c0.72,1.32,2.12,2.08,3.52,2.084c0.64,0,1.32-0.16,1.92-0.48
				c1.92-1.04,2.68-3.484,1.6-5.404C289.355,335.058,286.915,334.334,284.995,335.378z"/>
			<path d="M258.515,153.734c2-0.96,2.84-3.36,1.88-5.36c-0.96-1.96-3.36-2.8-5.36-1.84c-2,0.96-2.84,3.36-1.84,5.32
				c0.68,1.44,2.08,2.28,3.56,2.28C257.355,154.134,257.955,154.014,258.515,153.734z"/>
			<path d="M256.675,349.85c-2,0.96-2.84,3.364-1.88,5.32c0.68,1.444,2.12,2.284,3.6,2.284c0.6,0,1.2-0.124,1.72-0.4h0.04
				c1.96-0.96,2.8-3.32,1.84-5.32S258.675,348.894,256.675,349.85z"/>
			<path d="M242.275,356.574c-2.04,0.876-2.92,3.236-2,5.276c0.64,1.48,2.12,2.364,3.64,2.364c0.56,0,1.12-0.12,1.64-0.364
				c2-0.916,2.92-3.276,2-5.276C246.635,356.534,244.275,355.654,242.275,356.574z"/>
			<path d="M300.755,134.974c0.48,0,0.96-0.08,1.44-0.28c2.04-0.8,3.08-3.08,2.28-5.16c-0.8-2.04-3.12-3.08-5.16-2.28
				c-2.08,0.8-3.08,3.12-2.28,5.16C297.635,134.014,299.155,134.974,300.755,134.974z"/>
			<path d="M345.195,111.974c-2.12,0.6-3.4,2.8-2.8,4.92c0.48,1.76,2.12,2.92,3.84,2.92c0.36,0,0.72-0.04,1.08-0.12
				c2.12-0.6,3.4-2.8,2.8-4.92C349.515,112.654,347.315,111.374,345.195,111.974z"/>
			<path d="M339.395,302.534c-1.8,1.24-2.32,3.72-1.08,5.56c0.76,1.16,2.04,1.756,3.32,1.76c0.76,0,1.56-0.2,2.24-0.68
				c1.84-1.24,2.32-3.72,1.08-5.56C343.715,301.81,341.235,301.29,339.395,302.534z"/>
			<path d="M365.635,111.014c-0.48-2.16-2.64-3.52-4.76-3c-2.16,0.48-3.52,2.64-3,4.8c0.4,1.84,2.08,3.08,3.88,3.08
				c0.28,0,0.6-0.04,0.92-0.08C364.795,115.294,366.155,113.174,365.635,111.014z"/>
			<path d="M352.515,293.534c-1.8,1.28-2.24,3.76-0.96,5.56c0.76,1.12,2,1.68,3.28,1.68c0.8,0,1.6-0.24,2.28-0.72
				c1.8-1.284,2.24-3.764,0.96-5.564C356.795,292.65,354.315,292.254,352.515,293.534z"/>
			<path d="M314.435,121.654c-2.12,0.76-3.2,3-2.44,5.12c0.56,1.64,2.12,2.64,3.76,2.64c0.44,0,0.88-0.04,1.32-0.2
				c2.08-0.76,3.2-3.04,2.44-5.12C318.795,122.014,316.515,120.934,314.435,121.654z"/>
			<path d="M312.595,319.614c-1.92,1.12-2.52,3.6-1.36,5.48c0.76,1.236,2.04,1.916,3.4,1.92c0.72,0,1.44-0.16,2.08-0.56
				c1.88-1.16,2.48-3.6,1.36-5.48C316.915,319.054,314.475,318.454,312.595,319.614z"/>
			<path d="M298.875,327.654c-1.92,1.08-2.6,3.52-1.48,5.48c0.72,1.28,2.08,2,3.48,2c0.68,0,1.36-0.16,1.96-0.52
				c1.92-1.12,2.6-3.56,1.52-5.48C303.235,327.218,300.795,326.574,298.875,327.654z"/>
			<path d="M326.115,311.214c-1.88,1.2-2.44,3.68-1.24,5.52c0.76,1.24,2.04,1.88,3.36,1.88c0.76,0,1.48-0.2,2.16-0.64
				c1.88-1.16,2.4-3.64,1.24-5.52C330.435,310.574,327.955,310.054,326.115,311.214z"/>
		</g>
	</g>
</g>
<g>
</g>
<g>
</g>
<g>
</g>
<g>
</g>
<g>
</g>
<g>
</g>
<g>
</g>
<g>
</g>
<g>
</g>
<g>
</g>
<g>
</g>
<g>
</g>
<g>
</g>
<g>
</g>
<g>
</g>
</svg>
